<svg fill="none" height="24" viewBox="0 0 128 24" width="128" xmlns="http://www.w3.org/2000/svg"><g fill="#dad7d4"><path d="m47.9349 4.55514c-.5167-.062-.9817-.093-1.395-.093-.7233 0-1.2503.13433-1.581.403s-.496.76467-.496 1.488v1.147h3.441v3.44096h-3.441v12.059h-3.844v-12.059h-2.573v-3.44096h2.573v-1.395c0-1.96333.403-3.317 1.209-4.061.806-.76467 2.0253-1.147001 3.658-1.147001.6407 0 1.457.051667 2.449.155001zm4.154.372c-.7233 0-1.2917-.19633-1.705-.589s-.62-.93-.62-1.612c0-.70267.2067-1.25033.62-1.643.4133-.392666.9817-.588999 1.705-.588999s1.2917.196333 1.705.588999c.4133.39267.62.94033.62 1.643 0 .66133-.217 1.19867-.651 1.612-.4133.39267-.9713.589-1.674.589zm-1.953 18.07296v-15.49996h3.844v15.49996z"/><path d="m61.6572 18.6291c0 .3307.0827.5684.248.713.1654.1447.4237.217.775.217.2687 0 .589-.031.961-.093v3.534c-.7646.124-1.4776.186-2.139.186-1.1986 0-2.1183-.31-2.759-.93-.62-.6406-.93-1.767-.93-3.379v-17.57696h3.844z"/><path d="m84.1465 7.09714c.9094 0 1.829.19633 2.759.589.93.372 1.7257 1.054 2.387 2.046.682.99196 1.023 2.32496 1.023 3.99896v9.269h-3.813v-9.269c0-1.1573-.3306-1.984-.992-2.48-.6406-.5166-1.395-.775-2.263-.775-.744 0-1.395.2274-1.953.682-.558.434-.9196 1.1367-1.085 2.108v9.734h-3.813v-9.269c0-1.1573-.3306-1.984-.992-2.48-.6406-.5166-1.4053-.775-2.294-.775-.7026 0-1.3433.217-1.922.651-.558.434-.9196 1.1264-1.085 2.077v9.796h-3.844v-15.49996h3.844v1.209c.5167-.496 1.1057-.88867 1.767-1.178.682-.28933 1.4054-.434 2.17-.434.9507 0 1.9117.20667 2.883.62.9714.41333 1.7464 1.10567 2.325 2.077.5374-.76467 1.24-1.40533 2.108-1.922s1.798-.775 2.79-.775z"/><path d="m105.294 7.50014h3.844v15.49996h-3.844v-1.519c-.723.62-1.519 1.1057-2.387 1.457-.847.3307-1.746.496-2.697.496-1.5703 0-2.9447-.3513-4.1227-1.054-1.178-.7026-2.0873-1.674-2.728-2.914-.62-1.24-.93-2.635-.93-4.185s.31-2.945.93-4.185c.6407-1.23996 1.55-2.21129 2.728-2.91396 1.178-.72333 2.5524-1.085 4.1227-1.085.951 0 1.85.17567 2.697.527.868.33067 1.664.806 2.387 1.426zm-4.588 12.24496c.848 0 1.612-.186 2.294-.558.703-.3926 1.251-.93 1.643-1.612.414-.682.62-1.457.62-2.325 0-1.302-.444-2.3663-1.333-3.193-.868-.8266-1.942-1.24-3.224-1.24-1.3017 0-2.3763.4237-3.2237 1.271-.8266.8267-1.24 1.891-1.24 3.193s.4134 2.3767 1.24 3.224c.8474.8267 1.922 1.24 3.2237 1.24z"/><path d="m122.703 7.50014h4.712l-5.642 7.74996 5.642 7.75-4.712.031-3.286-4.526-3.317 4.526-4.712-.031 5.642-7.75-5.642-7.74996h4.712l3.317 4.52596z"/><path d="m5.89474 13.7143c-.92632 0-1.68421.7714-1.68421 1.7143 0 .9428.75789 1.7143 1.68421 1.7143.92631 0 1.68421-.7715 1.68421-1.7143 0-.9429-.7579-1.7143-1.68421-1.7143zm0-6.85716c-.92632 0-1.68421.77143-1.68421 1.71429s.75789 1.71427 1.68421 1.71427c.92631 0 1.68421-.77141 1.68421-1.71427s-.7579-1.71429-1.68421-1.71429zm-5.052635.85715c-.463158 0-.842105.38571-.842105.85714s.378947.85714.842105.85714c.463155 0 .842105-.38571.842105-.85714s-.37895-.85714-.842105-.85714zm30.315795 1.71428c.4632 0 .8421-.38571.8421-.85714s-.3789-.85714-.8421-.85714-.8421.38571-.8421.85714.3789.85714.8421.85714zm-11.7895-6c.9263 0 1.6842-.77143 1.6842-1.71428 0-.942861-.7579-1.71429-1.6842-1.71429s-1.6842.771429-1.6842 1.71429c0 .94285.7579 1.71428 1.6842 1.71428zm-18.526295 11.14283c-.463158 0-.842105.3857-.842105.8572 0 .4714.378947.8571.842105.8571.463155 0 .842105-.3857.842105-.8571 0-.4715-.37895-.8572-.842105-.8572zm11.789495-11.14283c.9263 0 1.6842-.77143 1.6842-1.71428 0-.942861-.7579-1.71429-1.6842-1.71429s-1.6842.771429-1.6842 1.71429c0 .94285.7579 1.71428 1.6842 1.71428zm0 9.42853c-1.3979 0-2.5263 1.1486-2.5263 2.5715 0 1.4228 1.1284 2.5714 2.5263 2.5714s2.5263-1.1486 2.5263-2.5714c0-1.4229-1.1284-2.5715-2.5263-2.5715zm13.4737.8572c-.9264 0-1.6842.7714-1.6842 1.7143 0 .9428.7578 1.7143 1.6842 1.7143.9263 0 1.6842-.7715 1.6842-1.7143 0-.9429-.7579-1.7143-1.6842-1.7143zm0-6.85716c-.9264 0-1.6842.77143-1.6842 1.71429s.7578 1.71427 1.6842 1.71427c.9263 0 1.6842-.77141 1.6842-1.71427s-.7579-1.71429-1.6842-1.71429zm5.0526 7.71426c-.4632 0-.8421.3857-.8421.8572 0 .4714.3789.8571.8421.8571s.8421-.3857.8421-.8571c0-.4715-.3789-.8572-.8421-.8572zm-11.7895 6c-.9263 0-1.6842.7715-1.6842 1.7143 0 .9429.7579 1.7143 1.6842 1.7143s1.6842-.7714 1.6842-1.7143c0-.9428-.7579-1.7143-1.6842-1.7143zm-6.7368-14.5714c-1.3979 0-2.5263 1.14857-2.5263 2.57143s1.1284 2.57147 2.5263 2.57147 2.5263-1.14861 2.5263-2.57147-1.1284-2.57143-2.5263-2.57143zm0 14.5714c-.9263 0-1.6842.7715-1.6842 1.7143 0 .9429.7579 1.7143 1.6842 1.7143s1.6842-.7714 1.6842-1.7143c0-.9428-.7579-1.7143-1.6842-1.7143zm6.7368-7.7143c-1.3979 0-2.5263 1.1486-2.5263 2.5715 0 1.4228 1.1284 2.5714 2.5263 2.5714s2.5263-1.1486 2.5263-2.5714c0-1.4229-1.1284-2.5715-2.5263-2.5715zm0-6.8571c-1.3979 0-2.5263 1.14857-2.5263 2.57143s1.1284 2.57147 2.5263 2.57147 2.5263-1.14861 2.5263-2.57147-1.1284-2.57143-2.5263-2.57143z"/><path d="m26.9473 1.71393c0 .47143-.3789.85715-.8421.85715-.4631 0-.8421-.38572-.8421-.85715s.379-.857139.8421-.857139c.4632 0 .8421.385709.8421.857139z"/><path d="m6.7368 1.71358c0 .47143-.37895.85714-.84211.85714-.46315 0-.8421-.38571-.8421-.85714s.37895-.857142.8421-.857142c.46316 0 .84211.385712.84211.857142z"/><path d="m6.7368 22.2854c0 .4714-.37895.8571-.84211.8571-.46315 0-.8421-.3857-.8421-.8571 0-.4715.37895-.8572.8421-.8572.46316 0 .84211.3857.84211.8572z"/><path d="m26.9473 22.2854c0 .4714-.3789.8571-.8421.8571-.4631 0-.8421-.3857-.8421-.8571 0-.4715.379-.8572.8421-.8572.4632 0 .8421.3857.8421.8572z"/></g></svg>