<svg fill="none" height="6" viewBox="0 0 22 6" width="22" xmlns="http://www.w3.org/2000/svg"><g fill="#dad7d4"><path d="m19.4316 0c-1.3979 0-2.5263 1.12783-2.5263 2.525s1.1284 2.525 2.5263 2.525 2.5263-1.12783 2.5263-2.525-1.1284-2.525-2.5263-2.525z"/><path d="m10.979 0c-1.39794 0-2.52636 1.12783-2.52636 2.525s1.12842 2.525 2.52636 2.525c1.3978 0 2.5263-1.12783 2.5263-2.525s-1.1285-2.525-2.5263-2.525z"/><path d="m2.52632 0c-1.3979 0-2.52632 1.12783-2.52632 2.525s1.12842 2.525 2.52632 2.525c1.39789 0 2.52631-1.12783 2.52631-2.525s-1.12842-2.525-2.52631-2.525z"/></g></svg>